<?xml version="1.0" encoding="UTF-8" standalone="no"?>
<svg
   xmlns:dc="http://purl.org/dc/elements/1.1/"
   xmlns:cc="http://creativecommons.org/ns#"
   xmlns:rdf="http://www.w3.org/1999/02/22-rdf-syntax-ns#"
   xmlns:svg="http://www.w3.org/2000/svg"
   xmlns="http://www.w3.org/2000/svg"
   version="1.1"
   id="svg2"
   viewBox="0 0 53.864231 104.18305"
   height="29.402773mm"
   width="15.201683mm">
  <defs
     id="defs4" />
  <metadata
     id="metadata7">
    <rdf:RDF>
      <cc:Work
         rdf:about="">
        <dc:format>image/svg+xml</dc:format>
        <dc:type
           rdf:resource="http://purl.org/dc/dcmitype/StillImage" />
        <dc:title></dc:title>
      </cc:Work>
    </rdf:RDF>
  </metadata>
  <g
     transform="translate(-310.26788,-594.77295)"
     id="layer1">
    <path
       id="path3347"
       d="m 326.15077,698.36415 c -0.48559,-0.48559 -0.88289,-11.47664 -0.88289,-24.42455 l 0,-23.54167 -7.5,0 -7.5,0 0,-8.75 0,-8.75 7.31282,0 7.31282,0 0.80045,-11.27681 c 0.954,-13.43998 3.69883,-19.70354 10.47255,-23.89781 4.03517,-2.49857 6.37157,-2.92829 15.97636,-2.93846 l 11.25,-0.0119 0.36961,8.4375 0.36962,8.4375 -7.36338,0 c -9.86452,0 -11.50085,1.83695 -11.50085,12.91093 l 0,8.33907 8.92411,0 8.92412,0 -0.78825,6.5625 c -0.43354,3.60937 -0.79314,7.54687 -0.79912,8.75 -0.009,1.85711 -1.23395,2.1875 -8.10887,2.1875 l -8.09801,0 -0.33949,24.0625 -0.33949,24.0625 -8.80461,0.36206 c -4.84254,0.19913 -9.20191,-0.0352 -9.6875,-0.52084 z"
       style="fill:#1b1b1b" />
  </g>
</svg>
