<?xml version="1.0" encoding="UTF-8" standalone="no"?>
<svg
   xmlns:dc="http://purl.org/dc/elements/1.1/"
   xmlns:cc="http://creativecommons.org/ns#"
   xmlns:rdf="http://www.w3.org/1999/02/22-rdf-syntax-ns#"
   xmlns:svg="http://www.w3.org/2000/svg"
   xmlns="http://www.w3.org/2000/svg"
   version="1.1"
   id="svg3349"
   viewBox="0 0 96.347759 96.093031"
   height="27.119589mm"
   width="27.191479mm">
  <defs
     id="defs3351" />
  <metadata
     id="metadata3354">
    <rdf:RDF>
      <cc:Work
         rdf:about="">
        <dc:format>image/svg+xml</dc:format>
        <dc:type
           rdf:resource="http://purl.org/dc/dcmitype/StillImage" />
        <dc:title></dc:title>
      </cc:Work>
    </rdf:RDF>
  </metadata>
  <g
     transform="translate(-160.60076,-458.54508)"
     id="layer1">
    <path
       id="path3368"
       d="m 164.25461,550.98426 -3.65385,-3.65384 0,-39.41234 c 0,-26.81013 0.45507,-40.41111 1.4232,-42.53591 3.04874,-6.69127 6.21971,-7.12997 48.6652,-6.73279 l 38.86968,0.36373 3.69484,4.13693 3.69484,4.13692 -0.36138,40.66017 -0.36138,40.66016 -3.50721,3.01541 -3.5072,3.01541 -40.65145,0 -40.65145,0 -3.65384,-3.65385 z m 79.84615,-7.84615 c 1.04762,-1.04762 1.5,-7.83333 1.5,-22.5 l 0,-21 -3.75,0 -3.75,0 0,7.9284 c 0,9.78927 -3.55326,17.2172 -10.93601,22.86123 -19.77233,15.11571 -48.09855,1.44338 -47.98088,-23.15913 l 0.0365,-7.6305 -4.3098,0 -4.3098,0 0,20.53571 c 0,17.00217 0.33799,20.87371 1.96429,22.5 1.68952,1.68953 6.7251,1.96429 36,1.96429 24.80555,0 34.44249,-0.40679 35.53571,-1.5 z m -24.82724,-20.7995 c 8.11659,-5.9387 10.90053,-16.05867 6.58861,-23.9505 -7.39891,-13.54178 -27.51312,-13.52717 -34.32193,0.0249 -3.9524,7.86676 -2.35862,15.91164 4.40342,22.22699 5.94976,5.55673 16.96114,6.35844 23.3299,1.69859 z m 25.70224,-43.3255 0,-8.75 -8.75,0 -8.75,0 -0.38003,7.36003 c -0.55637,10.7753 -0.40837,10.94033 9.42536,10.50997 l 8.45467,-0.37 0,-8.75 z"
       style="fill:#1c1c1c" />
  </g>
</svg>
