<?xml version="1.0" encoding="UTF-8" standalone="no"?>
<svg
   xmlns:dc="http://purl.org/dc/elements/1.1/"
   xmlns:cc="http://creativecommons.org/ns#"
   xmlns:rdf="http://www.w3.org/1999/02/22-rdf-syntax-ns#"
   xmlns:svg="http://www.w3.org/2000/svg"
   xmlns="http://www.w3.org/2000/svg"
   version="1.1"
   id="svg3391"
   viewBox="0 0 560.00002 225"
   height="63.5mm"
   width="158.04445mm">
  <defs
     id="defs3393" />
  <metadata
     id="metadata3396">
    <rdf:RDF>
      <cc:Work
         rdf:about="">
        <dc:format>image/svg+xml</dc:format>
        <dc:type
           rdf:resource="http://purl.org/dc/dcmitype/StillImage" />
        <dc:title></dc:title>
      </cc:Work>
    </rdf:RDF>
  </metadata>
  <g
     transform="translate(-91.428573,-342.71934)"
     id="layer1">
    <path
       id="path3410"
       d="m 91.428573,455.21934 0,-112.5 279.999997,0 280,0 0,112.5 0,112.5 -280,0 -279.999997,0 0,-112.5 z m 78.749997,-2.5 0,-26.25 -5,0 -5,0 0,26.25 0,26.25 5,0 5,0 0,-26.25 z m 95,25 c 0,-0.6875 0.70313,-1.25069 1.5625,-1.25153 2.07822,-0.002 7.77715,-5.06203 8.79726,-7.81097 0.60023,-1.61745 0.17051,-2.1875 -1.64899,-2.1875 -1.35342,0 -2.46077,-0.5625 -2.46077,-1.25 0,-2.1462 -3.11311,-1.36792 -5,1.25 -0.99105,1.375 -2.80273,2.5 -4.02595,2.5 -1.22323,0 -2.22405,0.5625 -2.22405,1.25 0,0.6875 -2.53125,1.25 -5.625,1.25 -3.09375,0 -5.625,-0.5625 -5.625,-1.25 0,-0.6875 -0.84375,-1.25 -1.875,-1.25 -1.03125,0 -1.875,-0.4969 -1.875,-1.10421 0,-0.60732 -1.125,-1.39841 -2.5,-1.75798 -1.375,-0.35957 -2.5,-1.55017 -2.5,-2.64578 0,-1.09562 -0.5625,-1.99203 -1.25,-1.99203 -0.70579,0 -1.25,-3.55555 -1.25,-8.16667 0,-7.65171 0.27324,-8.43991 4.33334,-12.5 2.38332,-2.38333 4.91457,-4.33333 5.625,-4.33333 0.71041,0 1.29166,-0.5625 1.29166,-1.25 0,-0.6875 2.53125,-1.25 5.625,-1.25 3.09375,0 5.625,0.5625 5.625,1.25 0,0.6875 1.00082,1.25 2.22405,1.25 1.22322,0 3.0349,1.125 4.02595,2.5 1.88689,2.61792 5,3.3962 5,1.25 0,-0.6875 1.09884,-1.25 2.44186,-1.25 2.35289,0 2.36428,-0.13635 0.3125,-3.7421 -1.17115,-2.05815 -2.83248,-3.74565 -3.69186,-3.75 -0.85937,-0.004 -1.5625,-0.5704 -1.5625,-1.2579 0,-0.6875 -1.125,-1.25 -2.5,-1.25 -1.375,0 -2.5,-0.5625 -2.5,-1.25 0,-0.72222 -3.95834,-1.25 -9.375,-1.25 -5.41666,0 -9.375,0.52778 -9.375,1.25 0,0.6875 -1.125,1.25 -2.5,1.25 -1.375,0 -2.5,0.5625 -2.5,1.25 0,0.6875 -0.71958,1.25 -1.59905,1.25 -0.87947,0 -2.42635,1.19392 -3.4375,2.65316 -1.01115,1.45924 -2.40095,3.28737 -3.08845,4.0625 -3.67219,4.14028 -6.24151,23.28434 -3.125,23.28434 0.6875,0 1.25,0.86749 1.25,1.92776 0,3.4805 9.30789,13.07224 12.68539,13.07224 1.27303,0 2.31461,0.5625 2.31461,1.25 0,0.72916 4.16666,1.25 10,1.25 5.83334,0 10,-0.52084 10,-1.25 z m 77.5,-12.5 c 0,-8.33333 -0.49242,-13.75 -1.25,-13.75 -0.6875,0 -1.25,-1.125 -1.25,-2.5 0,-1.94445 0.83334,-2.5 3.75,-2.5 2.51005,0 3.75,0.62374 3.75,1.88638 0,1.0375 1.6875,3.65218 3.75,5.81039 2.0625,2.15821 3.75,4.56016 3.75,5.33767 0,0.77752 1.125,2.22452 2.5,3.21556 1.375,0.99104 2.5,2.57704 2.5,3.52444 0,0.94739 1.6875,3.2989 3.75,5.22556 2.0625,1.92666 3.75,4.40235 3.75,5.50151 0,1.51783 1.27771,1.99849 5.3125,1.99849 l 5.3125,0 0,-26.25 0,-26.25 -4.0625,0 -4.0625,0 0,15.55123 c 0,9.01912 -0.52505,15.87573 -1.25,16.32377 -0.6875,0.4249 -1.25,0.17685 -1.25,-0.55123 0,-0.72807 -1.125,-1.32377 -2.5,-1.32377 -1.45755,0 -2.5,-0.83333 -2.5,-1.99849 0,-1.09917 -1.6875,-3.57485 -3.75,-5.50151 -2.0625,-1.92666 -3.75,-4.17666 -3.75,-5 0,-0.82334 -1.6875,-3.07334 -3.75,-5 -2.0625,-1.92666 -3.75,-4.40234 -3.75,-5.50151 0,-1.09917 -0.5246,-1.99849 -1.16576,-1.99849 -0.64118,0 -1.52283,-1.125 -1.95924,-2.5 -0.63625,-2.00466 -1.89129,-2.5 -6.33424,-2.5 l -5.54076,0 0,26.25 0,26.25 5,0 5,0 0,-13.75 z m 122.5,12.5 c 0,-0.6875 1.6875,-1.25 3.75,-1.25 2.0625,0 3.75,-0.5625 3.75,-1.25 0,-0.6875 0.71958,-1.25 1.59905,-1.25 0.87947,0 2.42635,-1.19392 3.4375,-2.65316 1.01115,-1.45924 2.40095,-3.28737 3.08845,-4.0625 2.04842,-2.30954 4.375,-10.03873 4.375,-14.53434 0,-4.49561 -2.32658,-12.2248 -4.375,-14.53434 -0.6875,-0.77513 -2.0773,-2.60326 -3.08845,-4.0625 -1.01115,-1.45924 -2.83928,-2.65316 -4.0625,-2.65316 -1.22323,0 -2.22405,-0.5625 -2.22405,-1.25 0,-0.6875 -1.37305,-1.25 -3.05123,-1.25 -1.67817,0 -3.39887,-0.5625 -3.82377,-1.25 -0.43521,-0.70419 -6.47131,-1.25 -13.82377,-1.25 l -13.05123,0 0,26.25 0,26.25 13.75,0 c 8.33334,0 13.75,-0.49242 13.75,-1.25 z m -17.5,-25 0,-18.75 6.875,0 c 3.78125,0 6.875,0.5625 6.875,1.25 0,0.6875 1.01507,1.25 2.25572,1.25 1.24066,0 4.3344,1.90399 6.875,4.23109 4.36797,4.00089 4.61928,4.65005 4.61928,11.93182 0,6.49286 -0.47746,8.17819 -3.0441,10.74482 -5.29945,5.29946 -11.59581,8.09227 -18.24392,8.09227 l -6.21198,0 0,-18.75 z m 117.5,13.75 c 0,-7.5 0.5,-12.5 1.25,-12.5 0.6875,0 1.25,-0.73768 1.25,-1.6393 0,-0.90161 1.125,-2.84684 2.5,-4.32273 1.375,-1.47589 2.5,-3.42653 2.5,-4.33475 0,-0.90823 1.125,-2.46218 2.5,-3.45322 1.375,-0.99104 2.5,-2.67854 2.5,-3.75 0,-1.07146 1.125,-2.75896 2.5,-3.75 1.375,-0.99104 2.5,-2.4746 2.5,-3.29678 0,-0.82219 0.70312,-1.7786 1.5625,-2.12537 0.85937,-0.34677 -1.39063,-0.67489 -5,-0.72917 -5.49473,-0.0826 -6.5625,0.26319 -6.5625,2.12537 0,1.22323 -1.125,3.03491 -2.5,4.02595 -1.375,0.99104 -2.5,2.80272 -2.5,4.02595 0,1.22323 -0.5625,2.22405 -1.25,2.22405 -0.6875,0 -1.25,0.88393 -1.25,1.96429 0,2.28888 -2.93262,5.53571 -5,5.53571 -1.95755,0 -5,-3.20051 -5,-5.25977 0,-0.92858 -1.125,-2.49919 -2.5,-3.49023 -1.375,-0.99104 -2.5,-2.80272 -2.5,-4.02595 0,-1.22323 -0.5246,-2.22405 -1.16576,-2.22405 -0.64118,0 -1.52283,-1.125 -1.95924,-2.5 -0.63625,-2.00466 -1.89129,-2.5 -6.33424,-2.5 -6.06565,0 -6.86902,0.99075 -3.04076,3.75 1.375,0.99104 2.5,2.67854 2.5,3.75 0,1.07146 1.125,2.75896 2.5,3.75 1.375,0.99104 2.5,2.54499 2.5,3.45322 0,0.90822 1.125,2.85886 2.5,4.33475 1.375,1.47589 2.5,3.42112 2.5,4.32273 0,0.90162 0.5625,1.6393 1.25,1.6393 0.6875,0 1.25,1.125 1.25,2.5 0,1.375 0.5625,2.5 1.25,2.5 0.74074,0 1.25,4.58333 1.25,11.25 l 0,11.25 5,0 5,0 0,-12.5 z"
       style="fill:#ffffff" />
  </g>
</svg>
