<?xml version="1.0" encoding="UTF-8" standalone="no"?>
<svg
   xmlns:dc="http://purl.org/dc/elements/1.1/"
   xmlns:cc="http://creativecommons.org/ns#"
   xmlns:rdf="http://www.w3.org/1999/02/22-rdf-syntax-ns#"
   xmlns:svg="http://www.w3.org/2000/svg"
   xmlns="http://www.w3.org/2000/svg"
   version="1.1"
   id="svg3370"
   viewBox="0 0 96.217418 79.831914"
   height="22.53034mm"
   width="27.154694mm">
  <defs
     id="defs3372" />
  <metadata
     id="metadata3375">
    <rdf:RDF>
      <cc:Work
         rdf:about="">
        <dc:format>image/svg+xml</dc:format>
        <dc:type
           rdf:resource="http://purl.org/dc/dcmitype/StillImage" />
        <dc:title></dc:title>
      </cc:Work>
    </rdf:RDF>
  </metadata>
  <g
     transform="translate(-299.04977,-374.85969)"
     id="layer1">
    <path
       id="path3389"
       d="m 314.70431,452.79943 c -3.61846,-0.97424 -8.621,-2.81895 -11.11677,-4.09935 l -4.53777,-2.32802 7.05799,-0.72845 c 3.88189,-0.40064 10.26779,-2.19794 14.19088,-3.994 l 7.1329,-3.26554 -6.32348,-2.92972 c -5.34064,-2.47436 -11.69975,-8.57516 -11.69975,-11.22451 0,-0.4095 1.82812,-0.74986 4.0625,-0.75636 l 4.0625,-0.0119 -5.20396,-3.1193 c -3.38293,-2.02771 -6.11676,-5.00485 -7.8125,-8.50778 -3.66899,-7.57913 -3.45068,-8.73038 1.45396,-7.66736 3.93162,0.85214 3.99356,0.80353 1.92267,-1.50893 -5.26368,-5.87767 -7.30187,-17.75865 -3.97105,-23.14803 0.37002,-0.5987 3.55847,1.50595 7.08545,4.67701 9.30405,8.36514 19.9622,13.28683 31.45707,14.52615 3.51646,0.37913 3.69791,0.15739 4.0443,-4.94244 0.76724,-11.29598 7.53832,-17.96285 19.06731,-18.77385 5.88187,-0.41375 7.67835,0.003 11.62701,2.70006 4.49307,3.06842 4.86803,3.11966 9.88249,1.35046 2.86672,-1.01144 5.48417,-1.56704 5.81655,-1.23466 0.33238,0.33238 -0.87867,2.54863 -2.69123,4.92501 l -3.29554,4.32069 3.97594,-1.14029 c 5.66037,-1.62337 5.80079,-0.57867 0.58361,4.34177 -3.49377,3.29505 -4.56708,5.29349 -4.56708,8.50363 0,6.50427 -3.43298,18.15183 -7.72157,26.19805 -12.16161,22.81751 -39.42042,34.58538 -64.48243,27.83764 z"
       style="fill:#1b1b1b" />
  </g>
</svg>
